<svg xmlns="http://www.w3.org/2000/svg" viewBox="0 0 688.26 171.91">
  <defs>
    <style>
      .cls-1, .cls-3 {
        opacity: 0.29;
      }

      .cls-2 {
        fill: #2c4cca;
      }

      .cls-2, .cls-3 {
        fill-rule: evenodd;
      }

      .cls-3 {
        fill: #1f3e72;
      }
    </style>
  </defs>
  <g id="Capa_2" data-name="Capa 2">
    <g class="cls-1">
      <path class="cls-2" d="M284.16,570.59l11.34-30.78,10.81,30.78Zm33.16,31h10.39l-27-74.09H290.46l-28.23,74.09h10.5L281,578.9h28.23l8.07,22.71Z" transform="translate(-262.23 -433.74)"/>
      <path class="cls-2" d="M350.31,576c-9.63-2.08-19.58-4.35-19.58-16,0-10.2,8.63-16.63,21.66-16.63,8.43,0,16.48,3.13,20.5,10.81l-8.77,3.65c-.7-2-5.24-7.2-12.81-7.2-7.41,0-11.12,4.39-11.12,8.18,0,5.34,7.05,7.56,13.06,8.77,12.46,2.5,23.29,5.69,23.29,17.43,0,9.13-8.11,17.69-23.59,17.69-11.4,0-19.49-3.81-23.39-11.77l10-1.74c2.51,4.36,7,6.25,13.8,6.25,8.38,0,13.28-3.2,13.28-9.25,0-6.4-8-8.42-16.33-10.22Z" transform="translate(-262.23 -433.74)"/>
      <path class="cls-2" d="M397.29,545.12h10.24V553H397.29v32c0,6.65,0,9.5,4,9.5a24.31,24.31,0,0,0,6.2-1.31V601a63.79,63.79,0,0,1-9.18,1c-10.94,0-10.94-5.32-10.82-12.66V553H378.6v-7.88h8.93V531.67l9.76-4.06v17.51Z" transform="translate(-262.23 -433.74)"/>
      <path class="cls-2" d="M425.51,545.27v10.08c5.35-10.64,15.47-10.88,19.28-11v9.76c-9.28.06-13.84,2-16.9,7-2.52,4.08-2.38,9.8-2.38,14.64v25.9h-9.46V545.27Z" transform="translate(-262.23 -433.74)"/>
      <polygon class="cls-2" points="291.83 93.79 291.83 103.03 249.9 158.98 292.88 158.98 292.88 167.87 238.46 167.87 238.46 158.24 280.6 102.92 238.49 102.92 238.49 93.79 291.83 93.79 291.83 93.79"/>
      <path class="cls-2" d="M623.83,545.66v8.18a19.81,19.81,0,0,1,17.56-10c7.17,0,15.76,3.59,18.51,12.88,1,3.33,1,6.78,1,11.53v33.39h-9.43V569.77c0-5.71,0-7.37-.6-9.27-1.67-5.35-6.92-7.73-12.06-7.73A14.55,14.55,0,0,0,628,557.05c-4.18,4.16-4.18,8.43-4.18,12.6v32h-9.46v-56Z" transform="translate(-262.23 -433.74)"/>
      <path class="cls-2" d="M769.57,591.63c-3.52,5.55-9.93,11.12-21.47,11.12-19.91,0-27.43-15.34-27.43-29.12,0-15.93,8.67-30.37,26.6-30.37,7,0,16.89,2.13,22.34,11.21l-8.86,3.7c-1.67-3.69-5.27-8-13.12-8-15.54,0-16.45,17.71-16.45,22.7,0,18.57,10.67,22.58,17,22.58,7.29,0,11-3.5,13-7.35l8.36,3.49Z" transform="translate(-262.23 -433.74)"/>
      <path class="cls-2" d="M568.7,567.67h29.88c-.84-14.73-9.33-17.23-15-17.23-8.08,0-13.81,5.94-14.88,17.23Zm37.66,23.24c-3.23,5.48-9.45,11.78-21.71,11.78-16.63,0-26.2-11.31-26.2-30.25,0-21.17,14-29.26,25.84-29.26,10.33,0,20.24,5.71,23.57,19.86a50.77,50.77,0,0,1,1.07,11.42H568.46c-.23,9.42,3.71,21.33,17,21.09a13.37,13.37,0,0,0,11.69-6.42l9.19,1.78Z" transform="translate(-262.23 -433.74)"/>
      <path class="cls-2" d="M676.17,567.67h29.88c-.83-14.73-9.32-17.23-15-17.23-8.07,0-13.8,5.94-14.88,17.23Zm37.66,23.24c-3.22,5.48-9.44,11.78-21.7,11.78-16.63,0-26.2-11.31-26.2-30.25,0-21.17,14-29.26,25.84-29.26,10.33,0,20.23,5.71,23.57,19.86a51.23,51.23,0,0,1,1.06,11.42H675.94c-.24,9.42,3.72,21.33,17,21.09a13.35,13.35,0,0,0,11.69-6.42l9.19,1.78Z" transform="translate(-262.23 -433.74)"/>
      <path class="cls-2" d="M821.24,601.67l-9.83,0a63.87,63.87,0,0,1-1.12-8.31c-2.86,3-8.15,9.1-18.86,9.1-10.95,0-19.07-6.49-19.07-16a15.21,15.21,0,0,1,2.51-8.46c3.22-4.76,9.19-8.57,26-9.88l8.91-.71V566c0-5.84,0-15.59-12.56-15.59-7.91,0-10.6,3.83-11.51,7.29L777,554.07c.14-.3.3-.61.46-.92,3.35-6.19,9.91-10,19.4-10,5.22,0,12,1.31,16.39,4.76,6.27,4.76,6.12,14.12,6.12,14.12l.38,28.9s.33,8.39,1.53,10.74Zm-12.92-15.54c1.42-3.09,1.55-4.4,1.55-12.62-3.68.59-8.66,1.31-14.75,2.62-10.47,2.26-12.25,6.2-12.25,10.13,0,4.52,3.56,8.33,10.58,8.33,6.55,0,12.14-2.62,14.87-8.46Z" transform="translate(-262.23 -433.74)"/>
      <path class="cls-2" d="M494,601.67l-9.83,0a62.87,62.87,0,0,1-1.13-8.31c-2.85,3-8.15,9.1-18.85,9.1-10.95,0-19.08-6.49-19.08-16a15.29,15.29,0,0,1,2.51-8.46c3.23-4.76,9.2-8.57,26-9.88l8.93-.71V566c0-5.84,0-15.59-12.58-15.59-7.9,0-10.59,3.83-11.51,7.29l-8.7-3.64c.14-.3.29-.61.46-.92,3.35-6.19,9.91-10,19.39-10,5.22,0,12,1.31,16.39,4.76,6.27,4.76,6.12,14.12,6.12,14.12l.38,28.9s.33,8.39,1.54,10.74Zm-12.93-15.54c1.44-3.09,1.55-4.4,1.55-12.62-3.67.59-8.66,1.31-14.74,2.62-10.47,2.26-12.25,6.2-12.25,10.13,0,4.52,3.56,8.33,10.58,8.33,6.54,0,12.13-2.62,14.86-8.46Z" transform="translate(-262.23 -433.74)"/>
    </g>
    <path class="cls-3" d="M950.43,523.62a5.85,5.85,0,0,0-.16-1,15.75,15.75,0,0,0-.63-2,16.49,16.49,0,0,0-1-2,24.07,24.07,0,0,0-1.37-2.08,9.13,9.13,0,0,0-.95-1.11,12.53,12.53,0,0,0-1.19-1.12,34.92,34.92,0,0,0-3-2.19,60.29,60.29,0,0,0-7.06-3.95c-3-1.31-5.85-2.87-8.93-3.93L905.47,497c0-3.94.12-7.87,0-11.81-.17-5.84-.41-11.68-.86-17.5-.31-4.06-.8-8.1-1.43-12.12-.49-3.13-1.24-6.22-1.94-9.32a21.64,21.64,0,0,0-.63-2.08c-.21-.62-.44-1.23-.69-1.84s-.48-1.08-.75-1.61-.51-.93-.79-1.39-.54-.8-.83-1.19-.55-.68-.84-1a9.73,9.73,0,0,0-.86-.84c-.27-.25-.56-.47-.85-.69s-.56-.38-.85-.55a9.06,9.06,0,0,0-.82-.42,14,14,0,0,0-1.53-.55,9.61,9.61,0,0,0-1.32-.25,8.26,8.26,0,0,0-1-.08c-.56,0-1.13,0-1.7,0a15.56,15.56,0,0,0-1.8.24,13.67,13.67,0,0,0-1.88.49,17,17,0,0,0-1.93.79c-.69.35-1.36.74-2,1.15s-1.38.9-2,1.39a40,40,0,0,0-3.38,2.7Q868.26,446.62,862,453c-2.22,2.25-4.36,4.58-6.37,7-8,9.65-15.91,19.34-23.58,29.24-3.41,4.39-6.47,9-9.63,13.61-.79,1.14-1.52,2.32-2.2,3.53-1.18,2.12-2.29,4.28-3.37,6.44-.28.57-.5,1.16-.72,1.75s-.39,1.14-.54,1.73a12,12,0,0,0-.32,1.67,8.14,8.14,0,0,0,0,1.56,2.54,2.54,0,0,0,.18.77,4.13,4.13,0,0,0,.35.77,6.5,6.5,0,0,0,.52.77,6.59,6.59,0,0,0,.65.75c.51.5,1,1,1.59,1.45a21.12,21.12,0,0,0,1.78,1.33c1.07.7,2.19,1.36,3.3,2,.48.28,1,.52,1.49.78l-.52-.28-.06,0,.08,0,.83.43c6.81,3.56,13.65,7.07,20.44,10.68s13.63,7.28,20.37,11.07l15.15,8.51c-5.26,4-10.62,7.83-15.78,11.94a70.46,70.46,0,0,0-5.57,5.08,59.27,59.27,0,0,0-4.11,4.57,41.22,41.22,0,0,0-2.84,4,31.3,31.3,0,0,0-1.84,3.36,22.19,22.19,0,0,0-1,2.71,15.1,15.1,0,0,0-.46,2,10,10,0,0,0-.11,1.23c0,.14,0,.28,0,.42,0,.37,0,.74,0,1.11s.06.68.11,1a8,8,0,0,0,.21,1,8.67,8.67,0,0,0,.31.9,8.84,8.84,0,0,0,.38.83,5.51,5.51,0,0,0,.46.78,13.38,13.38,0,0,0,1.12,1.37,10.64,10.64,0,0,0,1.35,1.15,13.85,13.85,0,0,0,1.52,1,17.4,17.4,0,0,0,1.63.77,11.56,11.56,0,0,0,1.71.6c2.11.47,4.24.9,6.39,1.19a15.37,15.37,0,0,0,3.18.12c3.66-.29,7.32-.66,10.95-1.23,4.23-.67,8.43-1.56,12.62-2.47,4.94-1.08,9.86-2.23,14.76-3.52a81,81,0,0,0,10.28-3.06c2.61-1.06,5.24-2.08,7.83-3.19a23.82,23.82,0,0,0,3.12-1.83,11.74,11.74,0,0,0,1.17-.94,7,7,0,0,0,.85-1,5.59,5.59,0,0,0,.55-.95,4.81,4.81,0,0,0,.3-.93,3.82,3.82,0,0,0,.1-.9,4.92,4.92,0,0,0-.09-.86,4.84,4.84,0,0,0-.25-.82,5.56,5.56,0,0,0-.37-.78,8.21,8.21,0,0,0-.47-.73,7,7,0,0,0-.55-.67c-.37-.4-.76-.8-1.17-1.17s-.74-.59-1.13-.87-.77-.51-1.17-.75c-2.69-1.63-5.38-3.29-8.09-4.89l-11.37-6.71c6.9-4.69,13.87-9.29,20.71-14.07,2.93-2,5.8-4.15,8.58-6.39,2.37-1.92,4.64-4,6.85-6.08a42.36,42.36,0,0,0,2.95-3.19c.44-.5.83-1,1.22-1.57a12.63,12.63,0,0,0,1-1.52c.89-1.76,1.77-3.54,2.51-5.38a13.26,13.26,0,0,0,.59-2.33,8.42,8.42,0,0,0,.14-1.11c0-.36,0-.72,0-1.08s0-.7-.07-1Zm-84.88-46.47c3.86-4,7.72-8,11.64-11.92.72-.72,1.51-1.36,2.28-2,.26-.23.55-.45.83-.67A8.05,8.05,0,0,1,881,462a3.6,3.6,0,0,1,.52-.26,3.12,3.12,0,0,1,.59-.19,3.51,3.51,0,0,1,.65,0,1,1,0,0,1,.33.07,1.56,1.56,0,0,1,.33.14,1.34,1.34,0,0,1,.31.22,2.27,2.27,0,0,1,.32.3,3.79,3.79,0,0,1,.3.4,3.15,3.15,0,0,1,.28.51,12.33,12.33,0,0,1,.48,1.49c.18.72.32,1.46.44,2.2q.42,2.72.74,5.44c.26,2.36.45,4.72.67,7.08L888.09,492l-14-3.21L861,486.61l-3.16-.25-1,0c2.89-3.07,5.77-6.15,8.69-9.19Zm-8.77,17.46.05-.07.07-.05H857l.17,0,.49.14,1.26.48,1.72.77L874,501.6l8.84,3.76,5.82,2.49.52.23c.31,4.6.7,9.2.94,13.81.19,3.6.27,7.2.36,10.8,0,.46,0,.91-.06,1.36,0,.26,0,.52-.08.77a6.69,6.69,0,0,1-.16.75,4.26,4.26,0,0,1-.28.7,3.72,3.72,0,0,1-.43.61,1.37,1.37,0,0,1-.29.25,1.9,1.9,0,0,1-.33.22,1.92,1.92,0,0,1-.39.17,3.81,3.81,0,0,1-.45.13,3.66,3.66,0,0,1-.57.05,4,4,0,0,1-.6,0,6.18,6.18,0,0,1-.62-.12,6,6,0,0,1-.64-.2,13.61,13.61,0,0,1-1.33-.64,14.84,14.84,0,0,1-1.41-.92q-.75-.56-1.44-1.17c-.51-.45-1-.91-1.47-1.4-1-1.08-2-2.17-2.94-3.31-1.68-2.07-3.44-4.09-4.92-6.31-2-3.05-4.14-6.07-6.13-9.16a62,62,0,0,1-3.4-5.64l-4.49-8.9-1-2.84-.21-.85-.14-.81v-.59l.07-.21Zm49.63,78.88c1.21.77,2.43,1.52,3.62,2.31,1.54,1,3.09,2,4.58,3.1,1.08.78,2.1,1.62,3.12,2.47A14.75,14.75,0,0,1,919,582.6a14.2,14.2,0,0,1,.91,1.14.13.13,0,0,1,0,.09.69.69,0,0,1,0,.2.26.26,0,0,1-.07.11.65.65,0,0,1-.15.1l-.22.07-.32,0c-5.9.44-11.81.85-17.71,1.31l-23,1.81-.72,0,.33-.35,1.45-1.28c3-2.23,5.88-4.58,9-6.67l13.05-8.86,4.95,3.14Zm17.76-45.39a2.6,2.6,0,0,1-.25.62,4,4,0,0,1-.42.65,15.84,15.84,0,0,1-1.26,1.33,31.45,31.45,0,0,1-3,2.54c-3.66,2.6-7.29,5.25-11,7.79-2.55,1.75-5.18,3.38-7.79,5.05l-15.14,9.73-6.44-3.69-27.43-15.67c-6.19-3.71-12.42-7.35-18.58-11.11-1.16-.71-2.25-1.53-3.35-2.32-.36-.25-.68-.54-1-.81a4,4,0,0,1-.33-.24,8.59,8.59,0,0,1-.68-.67,2.73,2.73,0,0,1-.35-.47,3.5,3.5,0,0,1-.29-.54,2.66,2.66,0,0,1-.18-.61,2.51,2.51,0,0,1,0-.67,3.52,3.52,0,0,1,.18-.71,3.85,3.85,0,0,1,.34-.71,11.24,11.24,0,0,1,.89-1.35,13.8,13.8,0,0,1,1.23-1.41c3.54-3.65,7.14-7.24,10.7-10.88l9.6-9.79.46,1.58,1.17,2.78.08.17c2.54,4.4,4.92,8.9,7.61,13.2,3.1,5,6.42,9.76,9.74,14.56q2.34,3.38,4.9,6.59a70.68,70.68,0,0,0,4.7,5.38,56.71,56.71,0,0,0,4.72,4.17,25.26,25.26,0,0,0,2.6,1.7,11.74,11.74,0,0,0,1.33.66,12.34,12.34,0,0,0,1.32.5,11.64,11.64,0,0,0,1.32.35,10.42,10.42,0,0,0,1.23.18,8.58,8.58,0,0,0,1.13,0,9.3,9.3,0,0,0,1.05-.09,7.51,7.51,0,0,0,.94-.21,8.1,8.1,0,0,0,.87-.3,7.85,7.85,0,0,0,.77-.38,6.12,6.12,0,0,0,.69-.43c.4-.3.79-.62,1.16-1a8.58,8.58,0,0,0,.85-1,13.2,13.2,0,0,0,.9-1.35,17.26,17.26,0,0,0,.93-1.75,19.11,19.11,0,0,0,.83-2.05c.48-1.46.93-2.93,1.3-4.42a47.44,47.44,0,0,0,1.24-6.1l1.25-12c2.83,1.33,5.73,2.52,8.51,4s5.3,3,7.93,4.61a6.73,6.73,0,0,1,.88.63c.39.32.76.66,1.12,1a5.23,5.23,0,0,1,.5.64,4,4,0,0,1,.37.68,4.76,4.76,0,0,1,.2.74,1.63,1.63,0,0,1,0,.38,1.59,1.59,0,0,1-.06.39Z" transform="translate(-262.23 -433.74)"/>
  </g>
</svg>
