<svg xmlns="http://www.w3.org/2000/svg" viewBox="0 0 402.92 91.84">
  <defs>
    <style>
      .cls-1 {
        opacity: 0.3;
      }

      .cls-2 {
        fill: #2c4cca;
      }

      .cls-3 {
        fill: #1f3e72;
      }
    </style>
  </defs>
  <g id="Capa_2" data-name="Capa 2">
    <g class="cls-1">
      <path class="cls-2" d="M585.67,552.26h-5.75c-1.34,0-2,1-2,2.87s.69,2.76,2,2.76H602c1.41,0,2.11-1,2.11-2.76s-.7-2.87-2.11-2.87Z" transform="translate(-214.32 -466.05)"/>
      <path class="cls-2" d="M552,552.26h-5.73c-1.31,0-2.09,1-2.09,2.87s.78,2.76,2.09,2.76h22.07c1.38,0,2.07-1,2.07-2.76s-.69-2.87-2.07-2.87Z" transform="translate(-214.32 -466.05)"/>
      <path class="cls-2" d="M520.08,552.26h-5.75c-1.4,0-2,1-2,2.87s.63,2.76,2,2.76h22.09c1.41,0,2.11-1,2.11-2.76s-.7-2.87-2.11-2.87Z" transform="translate(-214.32 -466.05)"/>
      <path class="cls-2" d="M486.38,552.26h-5.71c-1.4,0-2.11,1-2.11,2.87s.71,2.76,2.11,2.76h22c1.41,0,2.11-1,2.11-2.76s-.7-2.87-2.11-2.87Z" transform="translate(-214.32 -466.05)"/>
      <path class="cls-2" d="M452.66,552.26h-5.73c-1.39,0-2.1,1-2.1,2.87s.71,2.76,2.1,2.76h22c1.4,0,2.11-1,2.11-2.76s-.71-2.87-2.11-2.87Z" transform="translate(-214.32 -466.05)"/>
      <path class="cls-2" d="M420.79,552.26h-5.71c-1.41,0-2.11,1-2.11,2.87s.7,2.76,2.11,2.76h22c1.41,0,2.1-1,2.1-2.76s-.69-2.87-2.1-2.87Z" transform="translate(-214.32 -466.05)"/>
      <path class="cls-2" d="M387.06,552.26h-5.72c-1.39,0-2.1,1-2.1,2.87s.71,2.76,2.1,2.76h22c1.47,0,2.11-1,2.11-2.76s-.64-2.87-2.11-2.87Z" transform="translate(-214.32 -466.05)"/>
      <path class="cls-2" d="M353.33,552.26h-5.71c-1.41,0-2.12,1-2.12,2.87s.71,2.76,2.12,2.76h22.09c1.33,0,2-1,2-2.76s-.71-2.87-2-2.87Z" transform="translate(-214.32 -466.05)"/>
      <path class="cls-2" d="M321.48,552.26h-5.73c-1.41,0-2.1,1-2.1,2.87s.69,2.76,2.1,2.76h22c1.4,0,2.1-1,2.1-2.76s-.7-2.87-2.1-2.87Z" transform="translate(-214.32 -466.05)"/>
      <path class="cls-2" d="M287.69,552.26H282c-1.39,0-2.1,1-2.1,2.87s.71,2.76,2.1,2.76h22c1.4,0,2.1-1,2.1-2.76s-.7-2.87-2.1-2.87Z" transform="translate(-214.32 -466.05)"/>
      <path class="cls-2" d="M254,552.26h-5.72c-1.4,0-2.1,1-2.1,2.87s.7,2.76,2.1,2.76h22c1.4,0,2.1-1,2.1-2.76s-.7-2.87-2.1-2.87Z" transform="translate(-214.32 -466.05)"/>
      <path class="cls-2" d="M222.1,552.26h-5.74c-1.4,0-2,1-2,2.87s.64,2.76,2,2.76h22.1c1.4,0,2.1-1,2.1-2.76s-.7-2.87-2.1-2.87Z" transform="translate(-214.32 -466.05)"/>
      <path class="cls-3" d="M214.32,484.14h6v8.25a22.68,22.68,0,0,1,6.37-6.65,17.91,17.91,0,0,1,9.5-2.81,16,16,0,0,1,6.43,1.33,13.37,13.37,0,0,1,4.94,3.65,20,20,0,0,1,3.31,6.4,23.35,23.35,0,0,1,7.43-8.51,17.54,17.54,0,0,1,9.62-2.87,14.61,14.61,0,0,1,8.5,2.48,15.29,15.29,0,0,1,5.49,7c1.2,2.94,1.75,7.42,1.75,13.3v25.95h-6.05V505.69c0-5.06-.38-8.57-1.07-10.49a9.46,9.46,0,0,0-3.68-4.6,10.55,10.55,0,0,0-6.13-1.73,13.33,13.33,0,0,0-7.93,2.63,15,15,0,0,0-5.24,6.95c-1.07,2.95-1.63,7.8-1.63,14.6v18.59h-6V507.36c0-5.77-.32-9.66-1-11.72a10,10,0,0,0-3.69-4.92,10.64,10.64,0,0,0-6.18-1.85,13,13,0,0,0-7.76,2.56,15.19,15.19,0,0,0-5.3,6.83q-1.69,4.33-1.69,13.24v20.14h-6Z" transform="translate(-214.32 -466.05)"/>
      <path class="cls-3" d="M319.3,489a17,17,0,0,0-12.89,5.69A19.33,19.33,0,0,0,301,508.5a20.35,20.35,0,0,0,2.46,9.73,17.27,17.27,0,0,0,6.67,6.93,18.23,18.23,0,0,0,18.29,0,17.44,17.44,0,0,0,6.66-6.93,20.24,20.24,0,0,0,2.46-9.73,19.33,19.33,0,0,0-5.41-13.8A17,17,0,0,0,319.3,489m0-6.08a23,23,0,0,1,17.87,8,25.38,25.38,0,0,1,6.46,17.42,25.1,25.1,0,0,1-6.86,17.55,22.37,22.37,0,0,1-17.47,7.59q-10.76,0-17.54-7.59a25.09,25.09,0,0,1-6.85-17.55A25.36,25.36,0,0,1,301.38,491a22.8,22.8,0,0,1,17.92-8.1" transform="translate(-214.32 -466.05)"/>
      <path class="cls-3" d="M377.71,489.13a17.88,17.88,0,0,0-9.31,2.51,18.35,18.35,0,0,0-6.76,7.15,19.68,19.68,0,0,0,0,19.27,18.94,18.94,0,0,0,6.8,7.22,18.22,18.22,0,0,0,9.21,2.58,19.07,19.07,0,0,0,9.39-2.58,18.31,18.31,0,0,0,6.81-6.89,20.17,20.17,0,0,0,2.33-9.81,19,19,0,0,0-5.37-13.85,17.4,17.4,0,0,0-13.1-5.6m24-23.08V532.3H395.8v-8.24a26.89,26.89,0,0,1-8.45,7.07A23.14,23.14,0,0,1,377,533.52a22.53,22.53,0,0,1-17-7.4,25,25,0,0,1-7-17.92,24.57,24.57,0,0,1,7.11-17.66,22.86,22.86,0,0,1,17.08-7.34,21.31,21.31,0,0,1,10.4,2.51,23.07,23.07,0,0,1,8.2,7.55V466.05Z" transform="translate(-214.32 -466.05)"/>
      <path class="cls-3" d="M455,503.32a21.41,21.41,0,0,0-3.56-7.88,16,16,0,0,0-6.19-4.74,17.91,17.91,0,0,0-8-1.83,17.18,17.18,0,0,0-11.95,4.54c-2.4,2.21-4.26,5.51-5.52,9.91Zm0,13,5.08,2.79a29.5,29.5,0,0,1-5.78,8.1,24.18,24.18,0,0,1-7.45,4.74,26.57,26.57,0,0,1-9.35,1.61c-7.69,0-13.73-2.6-18.06-7.71A26.42,26.42,0,0,1,413,508.38a25.67,25.67,0,0,1,5.48-16.32,22.47,22.47,0,0,1,18.77-9.13,23.17,23.17,0,0,1,19.25,9.31c3.44,4.41,5.15,9.87,5.23,16.47H419.2c.15,5.58,1.85,10.17,5.27,13.73A16.71,16.71,0,0,0,437,527.83a20.06,20.06,0,0,0,7-1.31,18.53,18.53,0,0,0,5.79-3.38,26.26,26.26,0,0,0,5.22-6.86" transform="translate(-214.32 -466.05)"/>
      <path class="cls-3" d="M471.07,484.14h6.3v7a22.06,22.06,0,0,1,6-6.14,11,11,0,0,1,12.08-.44l-3.24,5.17a8.55,8.55,0,0,0-3.24-.82,8.94,8.94,0,0,0-6,2.48c-2,1.67-3.39,4.29-4.42,7.81-.77,2.69-1.17,8.2-1.17,16.44v16h-6.3Z" transform="translate(-214.32 -466.05)"/>
      <path class="cls-3" d="M502.93,484.14h5.78v8.5a24.5,24.5,0,0,1,7.71-7.28,18.16,18.16,0,0,1,9.2-2.43,15.39,15.39,0,0,1,9,2.69,16.46,16.46,0,0,1,5.79,7.28c1.26,3.07,1.87,7.81,1.87,14.31v24.43h-5.79V509a59.8,59.8,0,0,0-.66-11,12,12,0,0,0-3.89-7.09,11.54,11.54,0,0,0-7.49-2.37A13.94,13.94,0,0,0,515,492.2a17.09,17.09,0,0,0-5.49,9.06c-.54,2.37-.84,6.73-.84,12.93v17.45h-5.78Z" transform="translate(-214.32 -466.05)"/>
      <path class="cls-3" d="M578.24,488.87a18.18,18.18,0,0,0-9.33,2.53,18.69,18.69,0,0,0-6.74,7.19,19.73,19.73,0,0,0,0,19.37,18.9,18.9,0,0,0,6.79,7.27,18.09,18.09,0,0,0,9.2,2.6,18.86,18.86,0,0,0,9.4-2.6,18.18,18.18,0,0,0,6.82-6.94,20.47,20.47,0,0,0,2.32-9.83,19.39,19.39,0,0,0-5.3-13.94,17.58,17.58,0,0,0-13.16-5.65m24-4.71v48.13h-5.93V524a26.46,26.46,0,0,1-8.46,7.15,23.11,23.11,0,0,1-10.33,2.39,22.35,22.35,0,0,1-16.95-7.45,25.17,25.17,0,0,1-7.06-18,24.82,24.82,0,0,1,7.12-17.75,22.82,22.82,0,0,1,17.09-7.37,21.38,21.38,0,0,1,10.39,2.52,23.42,23.42,0,0,1,8.2,7.57v-8.86Z" transform="translate(-214.32 -466.05)"/>
      <path class="cls-3" d="M612.51,488.29h.75c.4,0,.66,0,.77-.15a.46.46,0,0,0,.26-.44.73.73,0,0,0-.12-.33.75.75,0,0,0-.25-.25c-.14,0-.41-.05-.71-.05h-.7Zm-.65,2.31v-4.07h1.35a3.89,3.89,0,0,1,1.08.08,1.6,1.6,0,0,1,.51.46.86.86,0,0,1,.19.56,1,1,0,0,1-.31.78,1.77,1.77,0,0,1-.9.39c.21.07.25.15.39.19.12.21.3.47.56.84l.52.77h-.82l-.33-.63a4.2,4.2,0,0,0-.7-1,1.89,1.89,0,0,0-.52-.12h-.37v1.73Zm1.61-5.29a3,3,0,0,0-1.55.44,2.56,2.56,0,0,0-1.14,1.18,2.85,2.85,0,0,0-.45,1.61,2.77,2.77,0,0,0,.45,1.55,2.49,2.49,0,0,0,1.14,1.17,3,3,0,0,0,3.14,0,2.46,2.46,0,0,0,1.15-1.17,3.47,3.47,0,0,0,.44-1.55,3.53,3.53,0,0,0-.44-1.61,2.91,2.91,0,0,0-1.15-1.18,3.06,3.06,0,0,0-1.59-.44m0-.52a4.61,4.61,0,0,1,1.85.41,3.13,3.13,0,0,1,1.4,1.41,3.2,3.2,0,0,1,.52,1.93,3.75,3.75,0,0,1-.44,1.88,4.48,4.48,0,0,1-1.41,1.43,4.36,4.36,0,0,1-1.92.45,4.13,4.13,0,0,1-1.88-.45,4.45,4.45,0,0,1-1.4-1.43,3.76,3.76,0,0,1-.45-1.88,3.82,3.82,0,0,1,.45-1.93,4.19,4.19,0,0,1,1.4-1.41,5.19,5.19,0,0,1,1.88-.41" transform="translate(-214.32 -466.05)"/>
    </g>
  </g>
</svg>
