<svg xmlns="http://www.w3.org/2000/svg" viewBox="0 0 287.82 117.53">
  <defs>
    <style>
      .cls-1 {
        opacity: 0.3;
      }

      .cls-2 {
        fill: #2c4cca;
      }

      .cls-3 {
        fill: #1f3e72;
      }
    </style>
  </defs>
  <g id="Capa_2" data-name="Capa 2">
    <g class="cls-1">
      <path class="cls-2" d="M320.52,517c3.47-10,23.25-14.17,52.09-10.69l5.59-20.54c-28.54-3.63-49.39.45-52.86,13.44Z" transform="translate(-319.75 -453.41)"/>
      <path class="cls-3" d="M424.7,495.59c-3.47,10-23.24,14.15-52.09,10.68L367,526.81c28.55,3.62,49.39-.46,52.86-13.44Z" transform="translate(-319.75 -453.41)"/>
      <path class="cls-2" d="M338.78,474c42.14,3,85.18,23.86,81.1,39.42l3.78-13.9c1.21-4.38,1.81-6.64,1.81-8.46,0-15.85-41.53-35.19-81.1-37.6Z" transform="translate(-319.75 -453.41)"/>
      <path class="cls-3" d="M406.44,538.59c-42.13-3-85.18-23.87-81.1-39.42l-3.77,13.89c-1.21,4.38-1.82,6.65-1.82,8.46,0,15.86,41.54,35.19,81.11,37.61Z" transform="translate(-319.75 -453.41)"/>
      <path class="cls-3" d="M560.14,533.76c-5.33.07-8.17-3.33-8.17-9.35,0-.4,0-.79,0-1.18h21a20.27,20.27,0,0,0,.69-4.92c0-7.34-4.5-12.94-13.71-12.94-9.42,0-17.8,9.27-17.8,19,0,9.35,6.1,15,16.28,15a20.55,20.55,0,0,0,12.05-3.87l-1.94-4.85A14.46,14.46,0,0,1,560.14,533.76Zm-.07-23.13c3.11,0,4.71,2,4.71,6.44a12.1,12.1,0,0,1-.08,1.31h-12C554.05,513.72,556.82,510.63,560.07,510.63Z" transform="translate(-319.75 -453.41)"/>
      <path class="cls-3" d="M477.18,503.29c0-7.62-5.95-13.16-15-13.16H444.77L431.62,538.6h11l4.85-17.86H457C468,520.74,477.18,513.67,477.18,503.29Zm-24.37,11.77H449l5.22-19.25h4c5,0,7.82,3.39,7.82,7.89C466,510.9,460.38,515.06,452.81,515.06Z" transform="translate(-319.75 -453.41)"/>
      <path class="cls-3" d="M491.53,506.27l1.23-4.51c.63-2.35,1.66-6.37,3.12-11s4.29-7.75,8-7.75c1.8,0,2.91.83,2.91,2.21-.07,1.53-1.32,2.43-1.32,4.85a5.26,5.26,0,0,0,5.54,5.06,7,7,0,0,0,7-6.93c0-5.88-5.06-9.76-12.74-9.76-11.29,0-18.7,7.2-23.34,24l-18.84,68.48h10.67l16.28-59.34h11.09l-7.29,27h10.66l8.73-32.33Z" transform="translate(-319.75 -453.41)"/>
      <polygon class="cls-3" points="225.78 52.86 197.52 52.86 196.14 58.19 209.81 58.19 188.59 85.2 218.5 85.2 219.89 79.86 204.49 79.86 225.78 52.86"/>
      <path class="cls-3" d="M601.48,505.71c-3.82,0-7.89,2.47-11.08,7.6l1.87-7H581.6l-8.72,32.33h10.66l4-14.54c1.59-5.95,5.47-11.77,8-11.77,2.77,0,1.73,5.19,6.51,5.19,3.46,0,5.54-3.18,5.54-6.09C607.57,508,604.87,505.71,601.48,505.71Z" transform="translate(-319.75 -453.41)"/>
    </g>
  </g>
</svg>
