<svg xmlns="http://www.w3.org/2000/svg" viewBox="0 0 532.51 89.57">
  <defs>
    <style>
      .cls-1 {
        opacity: 0.3;
      }

      .cls-2 {
        fill: #1f3e72;
      }

      .cls-3 {
        fill: #2c4cca;
      }
    </style>
  </defs>
  <g id="Capa_2" data-name="Capa 2">
    <g class="cls-1">
      <polygon class="cls-2" points="80.04 2.18 80.04 12.25 80.04 77.32 80.04 87.39 101.82 87.39 101.82 77.32 101.82 12.25 101.82 2.18 80.04 2.18"/>
      <path class="cls-2" d="M505.85,518.16c0,13.89-3.81,24.78-11.16,32.67-7.62,7.9-18,11.71-31.31,11.71s-24-3.81-31.3-11.71c-7.63-7.89-11.17-18.78-11.17-32.67,0-14.15,3.81-25,11.17-32.94s18-11.7,31.58-11.7,23.95,3.81,31.58,11.7c7.07,7.63,10.61,18.79,10.61,32.94m-20.69,0q0-13.47-5.72-21.23a19,19,0,0,0-16.06-7.9c-7.08,0-12.25,2.73-16.06,7.9s-5.72,12.25-5.72,21.23,1.91,15.79,5.72,21.24a20.29,20.29,0,0,0,32.12,0q5.73-8.17,5.72-21.24" transform="translate(-213.74 -473.24)"/>
      <path class="cls-2" d="M215.64,559.27V542.39A85,85,0,0,0,241,546.75c10.35,0,15.25-2.72,15.25-8.17a7.45,7.45,0,0,0-2.18-5.17c-1.64-1.36-5.45-3.54-11.71-6-11.16-4.63-18.51-8.71-22-12a22.13,22.13,0,0,1-6.53-16.33c0-8.44,3.27-15,9.8-19.33,6.26-4.36,14.7-6.54,25-6.54a131.26,131.26,0,0,1,25.32,3v15c-8.17-2.18-16.06-3.54-22.87-3.54-9.52,0-14.43,2.73-14.43,7.9,0,1.91,1.09,3.54,3,4.9,1.63,1.09,6,3.27,13.34,6.53,10.34,4.63,17.42,8.72,21,12a21.3,21.3,0,0,1,6.26,15.79c0,9.26-4.08,16.33-12,21.24-6.54,4.08-15,6-25.32,6a100.25,100.25,0,0,1-27.23-2.72" transform="translate(-213.74 -473.24)"/>
      <polygon class="cls-2" points="118.15 87.39 118.15 2.18 145.38 2.18 175.6 59.08 175.6 2.18 192.48 2.18 192.48 87.39 166.88 87.39 135.03 29.4 135.03 87.39 118.15 87.39"/>
      <polygon class="cls-3" points="359.36 2.18 381.14 2.18 352.01 87.39 326.69 87.39 297.56 2.18 319.34 2.18 339.21 63.43 359.36 2.18"/>
      <polygon class="cls-3" points="395.57 87.39 373.79 87.39 402.92 2.18 428.24 2.18 457.37 87.39 435.59 87.39 415.44 26.14 395.57 87.39"/>
      <path class="cls-3" d="M745.43,544A94.81,94.81,0,0,1,725,547c-9,0-16.07-2.72-21.24-7.89-5.44-5.17-7.89-12.25-7.89-21s2.72-15.51,7.89-21,12-8.16,20.69-8.16a68.64,68.64,0,0,1,21.24,3.81V477.33a46.35,46.35,0,0,0-8.44-2.18,70.29,70.29,0,0,0-13.89-1.36q-22.05,0-35.11,12.25c-8.72,8.17-13.07,19.06-13.07,32.94,0,13.62,4.35,24.5,13.07,32.13,8.71,7.89,20.41,11.7,35.66,11.7A66.46,66.46,0,0,0,737,561.72a90.14,90.14,0,0,0,9.26-1.9V544Z" transform="translate(-213.74 -473.24)"/>
    </g>
  </g>
</svg>
