<svg id="Capa_1" data-name="Capa 1" xmlns="http://www.w3.org/2000/svg" viewBox="0 0 27 27">
  <defs>
    <style>
      .cls-1 {
        fill: #fff;
      }

      .cls-2 {
        fill: #ffd012;
      }
    </style>
  </defs>
  <rect class="cls-1" width="27" height="27" rx="5"/>
  <path class="cls-2" d="M25.46,10.71a1,1,0,0,0-.84-.72L17.68,9,14.46,2.7a1.22,1.22,0,0,0-1-.6.79.79,0,0,0-1,.6L9.44,8.91,2.5,10c-.48,0-.72.24-1,.72a1,1,0,0,0,.36,1.07l5,4.9L5.73,23.62a1,1,0,0,0,.48,1.07c.24.12.36.24.6.24a.71.71,0,0,0,.47-.12l6.22-3.23,6.22,3.23a.71.71,0,0,0,.47.12,1.07,1.07,0,0,0,1.08-1.07v-.24L20.08,16.8l5-4.9A1.23,1.23,0,0,0,25.46,10.71Z"/>
</svg>
